<svg id="visual" viewBox="0 0 2560 1440" width="2560" height="1440" xmlns="http://www.w3.org/2000/svg" xmlns:xlink="http://www.w3.org/1999/xlink" version="1.1"><rect x="0" y="0" width="2560" height="1440" fill="#4c4c4c"></rect><path d="M0 964L42.7 971.7C85.3 979.3 170.7 994.7 256 985.8C341.3 977 426.7 944 512 919.7C597.3 895.3 682.7 879.7 768 890.7C853.3 901.7 938.7 939.3 1024 953.2C1109.3 967 1194.7 957 1280 940.3C1365.3 923.7 1450.7 900.3 1536 903.3C1621.3 906.3 1706.7 935.7 1792 940.2C1877.3 944.7 1962.7 924.3 2048 940.3C2133.3 956.3 2218.7 1008.7 2304 1011.5C2389.3 1014.3 2474.7 967.7 2517.3 944.3L2560 921L2560 1441L2517.3 1441C2474.7 1441 2389.3 1441 2304 1441C2218.7 1441 2133.3 1441 2048 1441C1962.7 1441 1877.3 1441 1792 1441C1706.7 1441 1621.3 1441 1536 1441C1450.7 1441 1365.3 1441 1280 1441C1194.7 1441 1109.3 1441 1024 1441C938.7 1441 853.3 1441 768 1441C682.7 1441 597.3 1441 512 1441C426.7 1441 341.3 1441 256 1441C170.7 1441 85.3 1441 42.7 1441L0 1441Z" fill="#e73a84"></path><path d="M0 1123L42.7 1093.3C85.3 1063.7 170.7 1004.3 256 1003.5C341.3 1002.7 426.7 1060.3 512 1069.7C597.3 1079 682.7 1040 768 1018.2C853.3 996.3 938.7 991.7 1024 1004C1109.3 1016.3 1194.7 1045.7 1280 1058.5C1365.3 1071.3 1450.7 1067.7 1536 1055.8C1621.3 1044 1706.7 1024 1792 1018.5C1877.3 1013 1962.7 1022 2048 1023.3C2133.3 1024.7 2218.7 1018.3 2304 1023.2C2389.3 1028 2474.7 1044 2517.3 1052L2560 1060L2560 1441L2517.3 1441C2474.7 1441 2389.3 1441 2304 1441C2218.7 1441 2133.3 1441 2048 1441C1962.7 1441 1877.3 1441 1792 1441C1706.7 1441 1621.3 1441 1536 1441C1450.7 1441 1365.3 1441 1280 1441C1194.7 1441 1109.3 1441 1024 1441C938.7 1441 853.3 1441 768 1441C682.7 1441 597.3 1441 512 1441C426.7 1441 341.3 1441 256 1441C170.7 1441 85.3 1441 42.7 1441L0 1441Z" fill="#e85691"></path><path d="M0 1098L42.7 1115C85.3 1132 170.7 1166 256 1182.5C341.3 1199 426.7 1198 512 1179.7C597.3 1161.3 682.7 1125.7 768 1103.3C853.3 1081 938.7 1072 1024 1070.5C1109.3 1069 1194.7 1075 1280 1089.5C1365.3 1104 1450.7 1127 1536 1123.5C1621.3 1120 1706.7 1090 1792 1092.3C1877.3 1094.7 1962.7 1129.3 2048 1131.8C2133.3 1134.3 2218.7 1104.7 2304 1115C2389.3 1125.3 2474.7 1175.7 2517.3 1200.8L2560 1226L2560 1441L2517.3 1441C2474.7 1441 2389.3 1441 2304 1441C2218.7 1441 2133.3 1441 2048 1441C1962.7 1441 1877.3 1441 1792 1441C1706.7 1441 1621.3 1441 1536 1441C1450.7 1441 1365.3 1441 1280 1441C1194.7 1441 1109.3 1441 1024 1441C938.7 1441 853.3 1441 768 1441C682.7 1441 597.3 1441 512 1441C426.7 1441 341.3 1441 256 1441C170.7 1441 85.3 1441 42.7 1441L0 1441Z" fill="#e96d9e"></path><path d="M0 1284L42.7 1271.3C85.3 1258.7 170.7 1233.3 256 1223.5C341.3 1213.7 426.7 1219.3 512 1220.2C597.3 1221 682.7 1217 768 1229.5C853.3 1242 938.7 1271 1024 1281C1109.3 1291 1194.7 1282 1280 1271.8C1365.3 1261.7 1450.7 1250.3 1536 1245.3C1621.3 1240.3 1706.7 1241.7 1792 1250.5C1877.3 1259.3 1962.7 1275.7 2048 1270C2133.3 1264.3 2218.7 1236.7 2304 1237.5C2389.3 1238.3 2474.7 1267.7 2517.3 1282.3L2560 1297L2560 1441L2517.3 1441C2474.7 1441 2389.3 1441 2304 1441C2218.7 1441 2133.3 1441 2048 1441C1962.7 1441 1877.3 1441 1792 1441C1706.7 1441 1621.3 1441 1536 1441C1450.7 1441 1365.3 1441 1280 1441C1194.7 1441 1109.3 1441 1024 1441C938.7 1441 853.3 1441 768 1441C682.7 1441 597.3 1441 512 1441C426.7 1441 341.3 1441 256 1441C170.7 1441 85.3 1441 42.7 1441L0 1441Z" fill="#e981aa"></path><path d="M0 1343L42.7 1331.2C85.3 1319.3 170.7 1295.7 256 1282C341.3 1268.3 426.7 1264.7 512 1275.2C597.3 1285.7 682.7 1310.3 768 1317C853.3 1323.7 938.7 1312.3 1024 1316.8C1109.3 1321.3 1194.7 1341.7 1280 1350.7C1365.3 1359.7 1450.7 1357.3 1536 1353C1621.3 1348.7 1706.7 1342.3 1792 1328.5C1877.3 1314.7 1962.7 1293.3 2048 1296C2133.3 1298.7 2218.7 1325.3 2304 1333.7C2389.3 1342 2474.7 1332 2517.3 1327L2560 1322L2560 1441L2517.3 1441C2474.7 1441 2389.3 1441 2304 1441C2218.7 1441 2133.3 1441 2048 1441C1962.7 1441 1877.3 1441 1792 1441C1706.7 1441 1621.3 1441 1536 1441C1450.7 1441 1365.3 1441 1280 1441C1194.7 1441 1109.3 1441 1024 1441C938.7 1441 853.3 1441 768 1441C682.7 1441 597.3 1441 512 1441C426.7 1441 341.3 1441 256 1441C170.7 1441 85.3 1441 42.7 1441L0 1441Z" fill="#e994b6"></path></svg>